<svg width="153" height="32" viewBox="0 0 153 32" fill="none" xmlns="http://www.w3.org/2000/svg">
<path d="M34.1634 11.7967H22.7267V23.5701L18.8682 18.0804C18.274 17.4391 17.9422 15.6524 17.9422 14.782L20.9132 16.0647V14.7668L17.9422 12.6289V11.1019C17.9208 10.8369 17.8501 10.578 17.7338 10.3384C17.5486 9.96425 17.3248 9.76573 17.0856 9.76573C16.8463 9.76573 16.6148 9.96425 16.4296 10.3384C16.3133 10.578 16.2427 10.8369 16.2213 11.1019V12.6289L13.2502 14.7668V16.0647L16.2213 14.782C16.2203 15.2129 16.1392 15.64 15.982 16.0418C15.8293 16.7423 15.6043 17.4254 15.3107 18.0804L11.4521 23.5701V11.7967H11.2978C9.81477 11.7977 8.34608 11.5096 6.97562 10.9489C5.60516 10.3882 4.35978 9.56585 3.31063 8.52884C2.25972 7.49245 1.42624 6.26076 0.858082 4.90459C0.289928 3.54842 -0.00168513 2.09452 7.32483e-06 0.626465L22.8657 0.626465C25.8607 0.626464 28.7331 1.80308 30.8517 3.89768C32.9702 5.99228 34.1614 8.83345 34.1634 11.7967Z" fill="#002455"/>
<path d="M22.7268 23.5698V25.5779C22.7548 26.3287 22.6296 27.0774 22.3586 27.7793C22.0875 28.4811 21.6762 29.1217 21.1493 29.6627C20.6223 30.2037 19.9905 30.634 19.2916 30.9279C18.5927 31.2219 17.8411 31.3733 17.0817 31.3733C16.3224 31.3733 15.5708 31.2219 14.8719 30.9279C14.173 30.634 13.5412 30.2037 13.0142 29.6627C12.4873 29.1217 12.076 28.4811 11.8049 27.7793C11.5339 27.0774 11.4087 26.3287 11.4367 25.5779V23.5698C11.4367 23.5698 14.2226 19.2331 15.2952 17.8893C15.58 17.2951 15.8099 16.6767 15.9821 16.0416C16.1392 15.6397 16.2203 15.2127 16.2213 14.7818L13.2502 16.0645V14.7665L16.2213 12.6287V11.1017C16.2427 10.8366 16.3133 10.5778 16.4297 10.3381C16.6149 9.96402 16.8387 9.7655 17.0856 9.7655C17.3326 9.7655 17.5486 9.96402 17.7338 10.3381C17.8502 10.5778 17.9208 10.8366 17.9422 11.1017V12.6287L20.9133 14.7665V16.0645L17.9422 14.7818C17.9721 15.8797 18.2913 16.9509 18.8682 17.8893C19.9409 19.2331 22.7268 23.5698 22.7268 23.5698Z" fill="#FFBB2F"/>
<path d="M13.8605 28.8289C14.6894 28.8289 15.3614 28.1641 15.3614 27.3439C15.3614 26.5238 14.6894 25.859 13.8605 25.859C13.0316 25.859 12.3596 26.5238 12.3596 27.3439C12.3596 28.1641 13.0316 28.8289 13.8605 28.8289Z" fill="#002455"/>
<path d="M17.0818 31.374C17.5569 31.374 17.942 30.993 17.942 30.523C17.942 30.053 17.5569 29.672 17.0818 29.672C16.6068 29.672 16.2217 30.053 16.2217 30.523C16.2217 30.993 16.6068 31.374 17.0818 31.374Z" fill="#002455"/>
<path d="M17.0818 25.0167C17.5569 25.0167 17.942 24.6357 17.942 24.1657C17.942 23.6957 17.5569 23.3147 17.0818 23.3147C16.6068 23.3147 16.2217 23.6957 16.2217 24.1657C16.2217 24.6357 16.6068 25.0167 17.0818 25.0167Z" fill="#002455"/>
<path d="M46.2364 12.0157V25.0577H44.3163V12.0157H40.1421V10.1918H50.3939V12.0157H46.2364Z" fill="#002455"/>
<path d="M54.9772 25.3897C54.2857 25.4118 53.5974 25.2866 52.9582 25.0223C52.319 24.7581 51.7437 24.3609 51.2705 23.8573C50.2907 22.803 49.7686 21.4049 49.8179 19.9681C49.7705 18.5441 50.276 17.1568 51.2288 16.0954C51.6979 15.6148 52.2576 15.2312 52.8756 14.9668C53.4937 14.7024 54.158 14.5623 54.8305 14.5545C55.5029 14.5468 56.1703 14.6716 56.7943 14.9217C57.4183 15.1718 57.9867 15.5424 58.4668 16.0121C59.417 17.1627 59.8944 18.63 59.8026 20.118V20.3262H51.7881C51.7876 20.7757 51.8784 21.2207 52.0548 21.6343C52.2313 22.048 52.4899 22.4217 52.815 22.733C53.1816 23.09 53.6283 23.3547 54.118 23.505C54.6076 23.6554 55.1262 23.6871 55.6306 23.5975C56.135 23.508 56.6108 23.2997 57.0183 22.99C57.4259 22.6804 57.7537 22.2782 57.9743 21.8169L59.6857 22.6497C59.2494 23.4863 58.5871 24.1844 57.7739 24.6652C56.9276 25.162 55.9589 25.413 54.9772 25.3897ZM51.9133 18.7271H57.7572C57.7214 18.0571 57.4213 17.4283 56.9224 16.9782C56.3371 16.4902 55.5888 16.2404 54.8269 16.2786C54.1455 16.2656 53.483 16.5027 52.9652 16.9449C52.4237 17.4111 52.0536 18.0441 51.9133 18.7438V18.7271Z" fill="#002455"/>
<path d="M69.4616 22.2337C69.4614 22.6736 69.356 23.107 69.1542 23.4981C68.9523 23.8892 68.6599 24.2266 68.3011 24.4823C67.448 25.1173 66.4008 25.438 65.3374 25.3901C64.371 25.3997 63.4255 25.1086 62.6326 24.5573C61.867 24.0483 61.2826 23.3108 60.9629 22.4502L62.6326 21.7257C62.8697 22.3089 63.2731 22.8099 63.793 23.1664C64.2498 23.4957 64.7989 23.6735 65.3625 23.6745C65.9025 23.6925 66.4362 23.5536 66.8986 23.2747C67.0749 23.1861 67.2243 23.0521 67.3314 22.8867C67.4385 22.7213 67.4995 22.5304 67.508 22.3336C67.508 21.684 67.0071 21.2093 66.0137 20.9012L64.2605 20.4681C62.2736 19.9684 61.2801 19.0134 61.2801 17.6032C61.2702 17.1666 61.3687 16.7344 61.5668 16.345C61.7649 15.9555 62.0565 15.621 62.4155 15.3712C63.2058 14.8578 64.121 14.568 65.0635 14.5328C66.0059 14.4976 66.9403 14.7183 67.7668 15.1713C68.4621 15.553 69.0045 16.1618 69.3029 16.8953L67.6333 17.6032C67.4399 17.172 67.1079 16.8174 66.6899 16.5955C66.2396 16.3498 65.7337 16.2237 65.2206 16.229C64.7456 16.2216 64.2787 16.3518 63.8765 16.6038C63.7053 16.6905 63.5602 16.821 63.4561 16.982C63.3519 17.1429 63.2925 17.3285 63.2837 17.5199C63.2837 18.0946 63.8347 18.511 64.9534 18.7608L66.4895 19.1606C68.4764 19.6769 69.4671 20.7013 69.4616 22.2337Z" fill="#002455"/>
<path d="M75.0635 25.2233C74.3022 25.2466 73.562 24.9716 73.0015 24.4571C72.721 24.1777 72.5019 23.8431 72.3582 23.4746C72.2145 23.1061 72.1492 22.7118 72.1666 22.3168V16.6286H70.3467V14.888H72.1332V11.7649H74.0534V14.888H78.6283V13.4055C78.6105 12.9527 78.6874 12.5012 78.8542 12.0796C79.0209 11.6581 79.2738 11.2758 79.5967 10.957C79.9301 10.6419 80.3236 10.3969 80.7539 10.2367C81.1842 10.0764 81.6424 10.0042 82.1012 10.0243C82.6775 10.0092 83.2494 10.129 83.7709 10.3741L83.2449 12.0397C82.8964 11.8713 82.5135 11.7858 82.1263 11.7899C81.9088 11.7836 81.6925 11.8243 81.4922 11.9091C81.292 11.9939 81.1124 12.1208 80.9658 12.2812C80.6552 12.6408 80.4966 13.1065 80.5234 13.5804V14.8713H83.1865V16.6119H80.5234V25.0568H78.6032V16.6286H74.0701V21.7588C74.0267 22.2159 74.1546 22.6728 74.429 23.0413C74.5322 23.1627 74.6599 23.2611 74.8038 23.33C74.9476 23.3988 75.1044 23.4367 75.2639 23.4411C75.5828 23.4426 75.8985 23.3774 76.1906 23.2495L76.8 24.9152C76.2418 25.1114 75.6553 25.2155 75.0635 25.2233Z" fill="#002455"/>
<path d="M83.8459 19.9685C83.8279 19.2526 83.9539 18.5404 84.2162 17.8738C84.4786 17.2073 84.8722 16.5999 85.3736 16.0875C86.376 15.1048 87.7251 14.5542 89.1304 14.5542C90.5358 14.5542 91.8849 15.1048 92.8872 16.0875C93.3827 16.6026 93.7701 17.2112 94.0267 17.8777C94.2833 18.5441 94.4039 19.2549 94.3816 19.9685C94.4069 20.6836 94.2877 21.3966 94.031 22.0648C93.7742 22.733 93.3852 23.3427 92.8872 23.8577C91.8849 24.8404 90.5358 25.3911 89.1304 25.3911C87.7251 25.3911 86.376 24.8404 85.3736 23.8577C84.8712 23.3444 84.477 22.7356 84.2146 22.0676C83.9522 21.3995 83.8268 20.6857 83.8459 19.9685ZM85.766 19.9685C85.7216 20.9483 86.0666 21.906 86.7261 22.6335C87.0318 22.954 87.3996 23.2092 87.8071 23.3836C88.2147 23.558 88.6536 23.6479 89.097 23.6479C89.5405 23.6479 89.9793 23.558 90.3869 23.3836C90.7945 23.2092 91.1623 22.954 91.468 22.6335C92.1274 21.906 92.4724 20.9483 92.428 19.9685C92.469 18.9992 92.1239 18.0531 91.468 17.3367C91.1668 17.0085 90.8005 16.7464 90.3923 16.5671C89.9842 16.3878 89.543 16.2952 89.097 16.2952C88.651 16.2952 88.2099 16.3878 87.8017 16.5671C87.3935 16.7464 87.0272 17.0085 86.7261 17.3367C86.0702 18.0531 85.7251 18.9992 85.766 19.9685Z" fill="#002455"/>
<path d="M97.7961 25.0566H95.8843V14.8879H97.7126V16.5535H97.7961C98.0261 15.9688 98.4505 15.4808 98.9982 15.171C99.5235 14.8145 100.141 14.6177 100.776 14.6047C101.259 14.5916 101.739 14.6766 102.187 14.8546L101.603 16.6951C101.241 16.584 100.863 16.5361 100.484 16.5535C100.125 16.5559 99.7711 16.6352 99.4456 16.7861C99.12 16.9369 98.8308 17.1559 98.5975 17.428C98.0643 17.9709 97.7647 18.7 97.7627 19.4601L97.7961 25.0566Z" fill="#002455"/>
<path d="M106.771 12.0148V25.0568H104.85V12.0148H100.676V10.1909H110.92V12.0148H106.771Z" fill="#002455"/>
<path d="M113.266 25.0566H111.345V14.8879H113.182V16.5535H113.266C113.495 15.9708 113.916 15.4833 114.459 15.171C114.986 14.8175 115.603 14.621 116.238 14.6047C116.723 14.5916 117.205 14.6766 117.657 14.8545L117.072 16.6951C116.711 16.584 116.332 16.5361 115.954 16.5535C115.595 16.5559 115.241 16.6352 114.915 16.7861C114.59 16.9369 114.3 17.1558 114.067 17.428C113.534 17.9709 113.234 18.7 113.232 19.4601L113.266 25.0566Z" fill="#002455"/>
<path d="M122.365 14.555C123.583 14.4893 124.78 14.895 125.705 15.6876C126.121 16.0856 126.446 16.5684 126.657 17.1031C126.869 17.6377 126.963 18.2117 126.932 18.7857V25.0569H125.112V23.6494H125.029C124.697 24.1875 124.231 24.6307 123.677 24.9357C123.122 25.2408 122.498 25.3973 121.865 25.39C120.834 25.4188 119.828 25.0658 119.043 24.399C118.679 24.0934 118.388 23.7104 118.191 23.2781C117.995 22.8458 117.898 22.3751 117.907 21.9005C117.893 21.4193 117.993 20.9415 118.201 20.507C118.409 20.0724 118.717 19.6936 119.101 19.402C120.028 18.7333 121.156 18.4012 122.299 18.4609C123.275 18.4235 124.244 18.6387 125.112 19.0856V18.6525C125.111 18.3337 125.039 18.0192 124.902 17.7312C124.765 17.4433 124.566 17.1891 124.319 16.9868C123.813 16.5274 123.15 16.2774 122.466 16.2873C121.968 16.2813 121.476 16.4021 121.038 16.6381C120.6 16.8742 120.229 17.2178 119.961 17.6364L118.291 16.5788C118.743 15.9243 119.353 15.3951 120.066 15.0411C120.779 14.687 121.57 14.5198 122.365 14.555ZM119.861 21.9421C119.859 22.1858 119.915 22.4264 120.026 22.6438C120.136 22.8611 120.297 23.0489 120.495 23.1914C120.918 23.5243 121.443 23.7009 121.981 23.6911C122.789 23.6907 123.564 23.3701 124.135 22.7999C124.443 22.5358 124.689 22.2085 124.858 21.8405C125.026 21.4725 125.113 21.0725 125.112 20.6679C124.382 20.1557 123.499 19.9061 122.608 19.96C121.916 19.9346 121.235 20.13 120.662 20.518C120.422 20.6698 120.225 20.8803 120.089 21.1295C119.953 21.3787 119.883 21.6584 119.886 21.9421H119.861Z" fill="#002455"/>
<path d="M133.853 25.0564H131.941L127.817 14.8876H129.896L132.893 22.7744H132.96L135.998 14.8876H138.044L133.853 25.0564Z" fill="#002455"/>
<path d="M143.529 25.3901C142.838 25.4115 142.151 25.286 141.514 25.0217C140.876 24.7575 140.302 24.3607 139.83 23.8577C139.342 23.3371 138.962 22.7255 138.712 22.0582C138.461 21.3908 138.345 20.6807 138.369 19.9684C138.325 18.5435 138.833 17.1563 139.788 16.0958C140.257 15.6154 140.816 15.232 141.433 14.9677C142.051 14.7034 142.714 14.5634 143.386 14.5556C144.058 14.5479 144.724 14.6726 145.348 14.9226C145.971 15.1727 146.539 15.543 147.018 16.0125C147.971 17.1619 148.452 18.6293 148.362 20.1184V20.3266H140.348C140.344 20.7743 140.431 21.2182 140.603 21.6318C140.775 22.0453 141.029 22.42 141.35 22.7334C141.652 23.0288 142.009 23.2617 142.402 23.4189C142.794 23.5761 143.214 23.6545 143.637 23.6495C144.241 23.6485 144.832 23.4755 145.341 23.1509C145.849 22.8264 146.255 22.3637 146.509 21.8173L148.22 22.6501C147.785 23.4846 147.126 24.1822 146.317 24.6656C145.472 25.1597 144.507 25.4105 143.529 25.3901ZM140.473 18.7275H146.317C146.28 18.0577 145.98 17.4292 145.482 16.9786C144.898 16.4892 144.149 16.2392 143.387 16.279C142.705 16.2675 142.043 16.5044 141.525 16.9453C140.982 17.4106 140.612 18.044 140.473 18.7442V18.7275Z" fill="#002455"/>
<path d="M152.027 10.1909V25.0568H150.107V10.1909H152.027Z" fill="#002455"/>
</svg>
